# xmcd
#
# Track frame offsets:
#	150
#	9470
#	22676
#	33029
#	46726
#	56850
#	70702
#	81739
#	92386
#	102813
#	116185
#	128860
#	139660
#	150920
#	165726
#	177382
#
# Disc length: 2548 seconds
#
# Revision: 1
# Processed by: cddbd v1.5.2PL0 Copyright (c) Steve Scherf et al.
# Submitted via: audiograbber 1.83.01
#
DISCID=c109f210
DTITLE=Various Artist - Golden Age of Country: Honky Tonk Man [Disc 2]
DYEAR=2009
DGENRE=Country
TTITLE0=The Everly Brothers - Wake Up Little Susie
TTITLE1=Jerry Lee Lewis - Whole Lotta Shakin' Going On
TTITLE2=Johnny and Jack - (Oh Baby Mine) I Get So Lonely
TTITLE3=Ray Price - City Lights
TTITLE4=Johnny Cash: Honky - Tonk Man
TTITLE5=Lefty Fritzell - Saginaw, Michigan
TTITLE6=Hank Locklin - Please Help Me, I'm Falling
TTITLE7=Johnny Cash - Daddy Sang Bass
TTITLE8=George Jones - Walk Through This World With Me
TTITLE9=David Houston - Almost Persuaded
TTITLE10=Hank Snow - I've Been Everywhere
TTITLE11=Porter Wagoner - Green, Green Grass of Home
TTITLE12=Buck Owens - My Heart Skips a Beat
TTITLE13=Jeannie Seely - Don't Touch Me
TTITLE14=Carl Smith - Hey Joe!
TTITLE15=The Davis Sister - I Forgot More Than You'll Ever Know
EXTD=
EXTT0=
EXTT1=
EXTT2=
EXTT3=
EXTT4=
EXTT5=
EXTT6=
EXTT7=
EXTT8=
EXTT9=
EXTT10=
EXTT11=
EXTT12=
EXTT13=
EXTT14=
EXTT15=
PLAYORDER=
